<svg width="28" height="28" viewBox="0 0 28 28" fill="none" xmlns="http://www.w3.org/2000/svg">
<mask id="path-1-inside-1_4_93" fill="white">
<path fill-rule="evenodd" clip-rule="evenodd" d="M5.88 1.40449e-06H5.82604C5.08806 -2.65955e-05 4.45136 -4.05524e-05 3.92696 0.0427994C3.37348 0.0880194 2.82298 0.187868 2.29324 0.457774C1.50296 0.860442 0.860442 1.50296 0.457774 2.29324C0.187868 2.82298 0.0880194 3.37348 0.0427994 3.92696C-4.05524e-05 4.45136 -2.65955e-05 5.08801 1.40449e-06 5.82599V5.88V6.72V6.77397C-2.65955e-05 7.51195 -4.05524e-05 8.14866 0.0427994 8.67304C0.0880194 9.22652 0.187868 9.77703 0.457774 10.3068C0.860442 11.097 1.50296 11.7396 2.29324 12.1422C2.82298 12.4121 3.37348 12.5119 3.92696 12.5572C4.45136 12.6 5.08802 12.6 5.82603 12.6H5.88H6.72H6.77393C7.51194 12.6 8.14864 12.6 8.67304 12.5572C9.22652 12.5119 9.77703 12.4121 10.3068 12.1422C11.097 11.7396 11.7396 11.097 12.1422 10.3068C12.4121 9.77703 12.5119 9.22652 12.5572 8.67304C12.6 8.14864 12.6 7.51198 12.6 6.77397V6.72V5.88V5.82607C12.6 5.08806 12.6 4.45136 12.5572 3.92696C12.5119 3.37348 12.4121 2.82298 12.1422 2.29324C11.7396 1.50296 11.097 0.860442 10.3068 0.457774C9.77703 0.187868 9.22652 0.0880194 8.67304 0.0427994C8.14866 -4.05524e-05 7.51201 -2.65955e-05 6.77403 1.40449e-06H6.72H5.88ZM3.56441 2.9526C3.63365 2.91732 3.77464 2.86457 4.15498 2.8335C4.55164 2.80109 5.07283 2.8 5.88 2.8H6.72C7.52717 2.8 8.04836 2.80109 8.44504 2.8335C8.82536 2.86457 8.96637 2.91732 9.03559 2.9526C9.29901 3.08682 9.5132 3.30099 9.64742 3.56441C9.68268 3.63365 9.73543 3.77464 9.7665 4.15498C9.79891 4.55164 9.8 5.07283 9.8 5.88V6.72C9.8 7.52717 9.79891 8.04836 9.7665 8.44504C9.73543 8.82536 9.68268 8.96637 9.64742 9.03559C9.5132 9.29901 9.29901 9.5132 9.03559 9.64742C8.96637 9.68268 8.82536 9.73543 8.44504 9.7665C8.04836 9.79891 7.52718 9.8 6.72 9.8H5.88C5.07283 9.8 4.55164 9.79891 4.15498 9.7665C3.77464 9.73543 3.63365 9.68268 3.56441 9.64742C3.30099 9.5132 3.08682 9.29901 2.9526 9.03559C2.91732 8.96637 2.86457 8.82536 2.8335 8.44504C2.80109 8.04836 2.8 7.52718 2.8 6.72V5.88C2.8 5.07283 2.80109 4.55164 2.8335 4.15498C2.86457 3.77464 2.91732 3.63365 2.9526 3.56441C3.08682 3.30099 3.30099 3.08682 3.56441 2.9526ZM21.28 1.40449e-06H21.2261C20.4882 -2.65955e-05 19.8513 -4.05524e-05 19.327 0.0427994C18.7734 0.0880194 18.223 0.187868 17.6932 0.457774C16.9029 0.860442 16.2604 1.50296 15.8578 2.29324C15.5879 2.82298 15.4881 3.37348 15.4428 3.92696C15.4 4.45137 15.4 5.08803 15.4 5.82604V5.88V6.72V6.77397C15.4 7.51197 15.4 8.14864 15.4428 8.67304C15.4881 9.22652 15.5879 9.77703 15.8578 10.3068C16.2604 11.097 16.9029 11.7396 17.6932 12.1422C18.223 12.4121 18.7734 12.5119 19.327 12.5572C19.8513 12.6 20.488 12.6 21.2261 12.6H21.28H22.12H22.1739C22.9118 12.6 23.5487 12.6 24.073 12.5572C24.6266 12.5119 25.177 12.4121 25.7068 12.1422C26.4971 11.7396 27.1396 11.097 27.5422 10.3068C27.8121 9.77703 27.9119 9.22652 27.9572 8.67304C28 8.14869 28 7.51209 28 6.77417V6.72V5.88V5.82607C28 5.08815 28 4.45131 27.9572 3.92696C27.9119 3.37348 27.8121 2.82298 27.5422 2.29324C27.1396 1.50296 26.4971 0.860442 25.7068 0.457774C25.177 0.187868 24.6266 0.0880194 24.073 0.0427994C23.5487 -4.05524e-05 22.912 -2.65955e-05 22.174 1.40449e-06H22.12H21.28ZM18.9644 2.9526C19.0337 2.91732 19.1747 2.86457 19.5549 2.8335C19.9517 2.80109 20.4728 2.8 21.28 2.8H22.12C22.9272 2.8 23.4483 2.80109 23.8451 2.8335C24.2253 2.86457 24.3663 2.91732 24.4356 2.9526C24.6991 3.08682 24.9131 3.30099 25.0474 3.56441C25.0827 3.63365 25.1355 3.77464 25.1665 4.15498C25.1989 4.55164 25.2 5.07283 25.2 5.88V6.72C25.2 7.52717 25.1989 8.04836 25.1665 8.44504C25.1355 8.82536 25.0827 8.96637 25.0474 9.03559C24.9131 9.29901 24.6991 9.5132 24.4356 9.64742C24.3663 9.68268 24.2253 9.73543 23.8451 9.7665C23.4483 9.79891 22.9272 9.8 22.12 9.8H21.28C20.4728 9.8 19.9517 9.79891 19.5549 9.7665C19.1747 9.73543 19.0337 9.68268 18.9644 9.64742C18.7009 9.5132 18.4869 9.29901 18.3526 9.03559C18.3173 8.96637 18.2645 8.82536 18.2335 8.44504C18.2011 8.04836 18.2 7.52718 18.2 6.72V5.88C18.2 5.07283 18.2011 4.55164 18.2335 4.15498C18.2645 3.77464 18.3173 3.63365 18.3526 3.56441C18.4869 3.30099 18.7009 3.08682 18.9644 2.9526ZM5.82604 15.4H5.88H6.72H6.77397C7.51197 15.4 8.14864 15.4 8.67304 15.4428C9.22652 15.4881 9.77703 15.5879 10.3068 15.8578C11.097 16.2604 11.7396 16.9029 12.1422 17.6932C12.4121 18.223 12.5119 18.7734 12.5572 19.327C12.6 19.8513 12.6 20.488 12.6 21.2261V21.28V22.12V22.1739C12.6 22.9118 12.6 23.5487 12.5572 24.073C12.5119 24.6266 12.4121 25.177 12.1422 25.7068C11.7396 26.4971 11.097 27.1396 10.3068 27.5422C9.77703 27.8121 9.22652 27.9119 8.67304 27.9572C8.14869 28 7.51208 28 6.77414 28H6.72H5.88H5.82607C5.08813 28 4.45133 28 3.92696 27.9572C3.37348 27.9119 2.82298 27.8121 2.29324 27.5422C1.50296 27.1396 0.860442 26.4971 0.457774 25.7068C0.187868 25.177 0.0880194 24.6266 0.0427994 24.073C-4.05524e-05 23.5487 -2.65955e-05 22.912 1.40449e-06 22.174V22.12V21.28V21.2261C-2.65955e-05 20.4882 -4.05524e-05 19.8513 0.0427994 19.327C0.0880194 18.7734 0.187868 18.223 0.457774 17.6932C0.860442 16.9029 1.50296 16.2604 2.29324 15.8578C2.82298 15.5879 3.37348 15.4881 3.92696 15.4428C4.45137 15.4 5.08803 15.4 5.82604 15.4ZM4.15498 18.2335C3.77464 18.2645 3.63365 18.3173 3.56441 18.3526C3.30099 18.4869 3.08682 18.7009 2.9526 18.9644C2.91732 19.0337 2.86457 19.1747 2.8335 19.5549C2.80109 19.9517 2.8 20.4728 2.8 21.28V22.12C2.8 22.9272 2.80109 23.4483 2.8335 23.8451C2.86457 24.2253 2.91732 24.3663 2.9526 24.4356C3.08682 24.6991 3.30099 24.9131 3.56441 25.0474C3.63365 25.0827 3.77464 25.1355 4.15498 25.1665C4.55164 25.1989 5.07283 25.2 5.88 25.2H6.72C7.52718 25.2 8.04836 25.1989 8.44504 25.1665C8.82536 25.1355 8.96637 25.0827 9.03559 25.0474C9.29901 24.9131 9.5132 24.6991 9.64742 24.4356C9.68268 24.3663 9.73543 24.2253 9.7665 23.8451C9.79891 23.4483 9.8 22.9272 9.8 22.12V21.28C9.8 20.4728 9.79891 19.9517 9.7665 19.5549C9.73543 19.1747 9.68268 19.0337 9.64742 18.9644C9.5132 18.7009 9.29901 18.4869 9.03559 18.3526C8.96637 18.3173 8.82536 18.2645 8.44504 18.2335C8.04836 18.2011 7.52717 18.2 6.72 18.2H5.88C5.07283 18.2 4.55164 18.2011 4.15498 18.2335ZM21.28 15.4H21.2261C20.488 15.4 19.8513 15.4 19.327 15.4428C18.7734 15.4881 18.223 15.5879 17.6932 15.8578C16.9029 16.2604 16.2604 16.9029 15.8578 17.6932C15.5879 18.223 15.4881 18.7734 15.4428 19.327C15.4 19.8513 15.4 20.488 15.4 21.2261V21.28V22.12V22.1739C15.4 22.912 15.4 23.5487 15.4428 24.073C15.4881 24.6266 15.5879 25.177 15.8578 25.7068C16.2604 26.4971 16.9029 27.1396 17.6932 27.5422C18.223 27.8121 18.7734 27.9119 19.327 27.9572C19.8513 28 20.488 28 21.226 28H21.28H22.12H22.1739C22.912 28 23.5487 28 24.073 27.9572C24.6266 27.9119 25.177 27.8121 25.7068 27.5422C26.4971 27.1396 27.1396 26.4971 27.5422 25.7068C27.8121 25.177 27.9119 24.6266 27.9572 24.073C28 23.5487 28 22.9121 28 22.174V22.12V21.28V21.2261C28 20.4882 28 19.8513 27.9572 19.327C27.9119 18.7734 27.8121 18.223 27.5422 17.6932C27.1396 16.9029 26.4971 16.2604 25.7068 15.8578C25.177 15.5879 24.6266 15.4881 24.073 15.4428C23.5487 15.4 22.912 15.4 22.1739 15.4H22.12H21.28ZM18.9644 18.3526C19.0337 18.3173 19.1747 18.2645 19.5549 18.2335C19.9517 18.2011 20.4728 18.2 21.28 18.2H22.12C22.9272 18.2 23.4483 18.2011 23.8451 18.2335C24.2253 18.2645 24.3663 18.3173 24.4356 18.3526C24.6991 18.4869 24.9131 18.7009 25.0474 18.9644C25.0827 19.0337 25.1355 19.1747 25.1665 19.5549C25.1989 19.9517 25.2 20.4728 25.2 21.28V22.12C25.2 22.9272 25.1989 23.4483 25.1665 23.8451C25.1355 24.2253 25.0827 24.3663 25.0474 24.4356C24.9131 24.6991 24.6991 24.9131 24.4356 25.0474C24.3663 25.0827 24.2253 25.1355 23.8451 25.1665C23.4483 25.1989 22.9272 25.2 22.12 25.2H21.28C20.4728 25.2 19.9517 25.1989 19.5549 25.1665C19.1747 25.1355 19.0337 25.0827 18.9644 25.0474C18.7009 24.9131 18.4869 24.6991 18.3526 24.4356C18.3173 24.3663 18.2645 24.2253 18.2335 23.8451C18.2011 23.4483 18.2 22.9272 18.2 22.12V21.28C18.2 20.4728 18.2011 19.9517 18.2335 19.5549C18.2645 19.1747 18.3173 19.0337 18.3526 18.9644C18.4869 18.7009 18.7009 18.4869 18.9644 18.3526Z"/>
</mask>
<path fill-rule="evenodd" clip-rule="evenodd" d="M5.88 1.40449e-06H5.82604C5.08806 -2.65955e-05 4.45136 -4.05524e-05 3.92696 0.0427994C3.37348 0.0880194 2.82298 0.187868 2.29324 0.457774C1.50296 0.860442 0.860442 1.50296 0.457774 2.29324C0.187868 2.82298 0.0880194 3.37348 0.0427994 3.92696C-4.05524e-05 4.45136 -2.65955e-05 5.08801 1.40449e-06 5.82599V5.88V6.72V6.77397C-2.65955e-05 7.51195 -4.05524e-05 8.14866 0.0427994 8.67304C0.0880194 9.22652 0.187868 9.77703 0.457774 10.3068C0.860442 11.097 1.50296 11.7396 2.29324 12.1422C2.82298 12.4121 3.37348 12.5119 3.92696 12.5572C4.45136 12.6 5.08802 12.6 5.82603 12.6H5.88H6.72H6.77393C7.51194 12.6 8.14864 12.6 8.67304 12.5572C9.22652 12.5119 9.77703 12.4121 10.3068 12.1422C11.097 11.7396 11.7396 11.097 12.1422 10.3068C12.4121 9.77703 12.5119 9.22652 12.5572 8.67304C12.6 8.14864 12.6 7.51198 12.6 6.77397V6.72V5.88V5.82607C12.6 5.08806 12.6 4.45136 12.5572 3.92696C12.5119 3.37348 12.4121 2.82298 12.1422 2.29324C11.7396 1.50296 11.097 0.860442 10.3068 0.457774C9.77703 0.187868 9.22652 0.0880194 8.67304 0.0427994C8.14866 -4.05524e-05 7.51201 -2.65955e-05 6.77403 1.40449e-06H6.72H5.88ZM3.56441 2.9526C3.63365 2.91732 3.77464 2.86457 4.15498 2.8335C4.55164 2.80109 5.07283 2.8 5.88 2.8H6.72C7.52717 2.8 8.04836 2.80109 8.44504 2.8335C8.82536 2.86457 8.96637 2.91732 9.03559 2.9526C9.29901 3.08682 9.5132 3.30099 9.64742 3.56441C9.68268 3.63365 9.73543 3.77464 9.7665 4.15498C9.79891 4.55164 9.8 5.07283 9.8 5.88V6.72C9.8 7.52717 9.79891 8.04836 9.7665 8.44504C9.73543 8.82536 9.68268 8.96637 9.64742 9.03559C9.5132 9.29901 9.29901 9.5132 9.03559 9.64742C8.96637 9.68268 8.82536 9.73543 8.44504 9.7665C8.04836 9.79891 7.52718 9.8 6.72 9.8H5.88C5.07283 9.8 4.55164 9.79891 4.15498 9.7665C3.77464 9.73543 3.63365 9.68268 3.56441 9.64742C3.30099 9.5132 3.08682 9.29901 2.9526 9.03559C2.91732 8.96637 2.86457 8.82536 2.8335 8.44504C2.80109 8.04836 2.8 7.52718 2.8 6.72V5.88C2.8 5.07283 2.80109 4.55164 2.8335 4.15498C2.86457 3.77464 2.91732 3.63365 2.9526 3.56441C3.08682 3.30099 3.30099 3.08682 3.56441 2.9526ZM21.28 1.40449e-06H21.2261C20.4882 -2.65955e-05 19.8513 -4.05524e-05 19.327 0.0427994C18.7734 0.0880194 18.223 0.187868 17.6932 0.457774C16.9029 0.860442 16.2604 1.50296 15.8578 2.29324C15.5879 2.82298 15.4881 3.37348 15.4428 3.92696C15.4 4.45137 15.4 5.08803 15.4 5.82604V5.88V6.72V6.77397C15.4 7.51197 15.4 8.14864 15.4428 8.67304C15.4881 9.22652 15.5879 9.77703 15.8578 10.3068C16.2604 11.097 16.9029 11.7396 17.6932 12.1422C18.223 12.4121 18.7734 12.5119 19.327 12.5572C19.8513 12.6 20.488 12.6 21.2261 12.6H21.28H22.12H22.1739C22.9118 12.6 23.5487 12.6 24.073 12.5572C24.6266 12.5119 25.177 12.4121 25.7068 12.1422C26.4971 11.7396 27.1396 11.097 27.5422 10.3068C27.8121 9.77703 27.9119 9.22652 27.9572 8.67304C28 8.14869 28 7.51209 28 6.77417V6.72V5.88V5.82607C28 5.08815 28 4.45131 27.9572 3.92696C27.9119 3.37348 27.8121 2.82298 27.5422 2.29324C27.1396 1.50296 26.4971 0.860442 25.7068 0.457774C25.177 0.187868 24.6266 0.0880194 24.073 0.0427994C23.5487 -4.05524e-05 22.912 -2.65955e-05 22.174 1.40449e-06H22.12H21.28ZM18.9644 2.9526C19.0337 2.91732 19.1747 2.86457 19.5549 2.8335C19.9517 2.80109 20.4728 2.8 21.28 2.8H22.12C22.9272 2.8 23.4483 2.80109 23.8451 2.8335C24.2253 2.86457 24.3663 2.91732 24.4356 2.9526C24.6991 3.08682 24.9131 3.30099 25.0474 3.56441C25.0827 3.63365 25.1355 3.77464 25.1665 4.15498C25.1989 4.55164 25.2 5.07283 25.2 5.88V6.72C25.2 7.52717 25.1989 8.04836 25.1665 8.44504C25.1355 8.82536 25.0827 8.96637 25.0474 9.03559C24.9131 9.29901 24.6991 9.5132 24.4356 9.64742C24.3663 9.68268 24.2253 9.73543 23.8451 9.7665C23.4483 9.79891 22.9272 9.8 22.12 9.8H21.28C20.4728 9.8 19.9517 9.79891 19.5549 9.7665C19.1747 9.73543 19.0337 9.68268 18.9644 9.64742C18.7009 9.5132 18.4869 9.29901 18.3526 9.03559C18.3173 8.96637 18.2645 8.82536 18.2335 8.44504C18.2011 8.04836 18.2 7.52718 18.2 6.72V5.88C18.2 5.07283 18.2011 4.55164 18.2335 4.15498C18.2645 3.77464 18.3173 3.63365 18.3526 3.56441C18.4869 3.30099 18.7009 3.08682 18.9644 2.9526ZM5.82604 15.4H5.88H6.72H6.77397C7.51197 15.4 8.14864 15.4 8.67304 15.4428C9.22652 15.4881 9.77703 15.5879 10.3068 15.8578C11.097 16.2604 11.7396 16.9029 12.1422 17.6932C12.4121 18.223 12.5119 18.7734 12.5572 19.327C12.6 19.8513 12.6 20.488 12.6 21.2261V21.28V22.12V22.1739C12.6 22.9118 12.6 23.5487 12.5572 24.073C12.5119 24.6266 12.4121 25.177 12.1422 25.7068C11.7396 26.4971 11.097 27.1396 10.3068 27.5422C9.77703 27.8121 9.22652 27.9119 8.67304 27.9572C8.14869 28 7.51208 28 6.77414 28H6.72H5.88H5.82607C5.08813 28 4.45133 28 3.92696 27.9572C3.37348 27.9119 2.82298 27.8121 2.29324 27.5422C1.50296 27.1396 0.860442 26.4971 0.457774 25.7068C0.187868 25.177 0.0880194 24.6266 0.0427994 24.073C-4.05524e-05 23.5487 -2.65955e-05 22.912 1.40449e-06 22.174V22.12V21.28V21.2261C-2.65955e-05 20.4882 -4.05524e-05 19.8513 0.0427994 19.327C0.0880194 18.7734 0.187868 18.223 0.457774 17.6932C0.860442 16.9029 1.50296 16.2604 2.29324 15.8578C2.82298 15.5879 3.37348 15.4881 3.92696 15.4428C4.45137 15.4 5.08803 15.4 5.82604 15.4ZM4.15498 18.2335C3.77464 18.2645 3.63365 18.3173 3.56441 18.3526C3.30099 18.4869 3.08682 18.7009 2.9526 18.9644C2.91732 19.0337 2.86457 19.1747 2.8335 19.5549C2.80109 19.9517 2.8 20.4728 2.8 21.28V22.12C2.8 22.9272 2.80109 23.4483 2.8335 23.8451C2.86457 24.2253 2.91732 24.3663 2.9526 24.4356C3.08682 24.6991 3.30099 24.9131 3.56441 25.0474C3.63365 25.0827 3.77464 25.1355 4.15498 25.1665C4.55164 25.1989 5.07283 25.2 5.88 25.2H6.72C7.52718 25.2 8.04836 25.1989 8.44504 25.1665C8.82536 25.1355 8.96637 25.0827 9.03559 25.0474C9.29901 24.9131 9.5132 24.6991 9.64742 24.4356C9.68268 24.3663 9.73543 24.2253 9.7665 23.8451C9.79891 23.4483 9.8 22.9272 9.8 22.12V21.28C9.8 20.4728 9.79891 19.9517 9.7665 19.5549C9.73543 19.1747 9.68268 19.0337 9.64742 18.9644C9.5132 18.7009 9.29901 18.4869 9.03559 18.3526C8.96637 18.3173 8.82536 18.2645 8.44504 18.2335C8.04836 18.2011 7.52717 18.2 6.72 18.2H5.88C5.07283 18.2 4.55164 18.2011 4.15498 18.2335ZM21.28 15.4H21.2261C20.488 15.4 19.8513 15.4 19.327 15.4428C18.7734 15.4881 18.223 15.5879 17.6932 15.8578C16.9029 16.2604 16.2604 16.9029 15.8578 17.6932C15.5879 18.223 15.4881 18.7734 15.4428 19.327C15.4 19.8513 15.4 20.488 15.4 21.2261V21.28V22.12V22.1739C15.4 22.912 15.4 23.5487 15.4428 24.073C15.4881 24.6266 15.5879 25.177 15.8578 25.7068C16.2604 26.4971 16.9029 27.1396 17.6932 27.5422C18.223 27.8121 18.7734 27.9119 19.327 27.9572C19.8513 28 20.488 28 21.226 28H21.28H22.12H22.1739C22.912 28 23.5487 28 24.073 27.9572C24.6266 27.9119 25.177 27.8121 25.7068 27.5422C26.4971 27.1396 27.1396 26.4971 27.5422 25.7068C27.8121 25.177 27.9119 24.6266 27.9572 24.073C28 23.5487 28 22.9121 28 22.174V22.12V21.28V21.2261C28 20.4882 28 19.8513 27.9572 19.327C27.9119 18.7734 27.8121 18.223 27.5422 17.6932C27.1396 16.9029 26.4971 16.2604 25.7068 15.8578C25.177 15.5879 24.6266 15.4881 24.073 15.4428C23.5487 15.4 22.912 15.4 22.1739 15.4H22.12H21.28ZM18.9644 18.3526C19.0337 18.3173 19.1747 18.2645 19.5549 18.2335C19.9517 18.2011 20.4728 18.2 21.28 18.2H22.12C22.9272 18.2 23.4483 18.2011 23.8451 18.2335C24.2253 18.2645 24.3663 18.3173 24.4356 18.3526C24.6991 18.4869 24.9131 18.7009 25.0474 18.9644C25.0827 19.0337 25.1355 19.1747 25.1665 19.5549C25.1989 19.9517 25.2 20.4728 25.2 21.28V22.12C25.2 22.9272 25.1989 23.4483 25.1665 23.8451C25.1355 24.2253 25.0827 24.3663 25.0474 24.4356C24.9131 24.6991 24.6991 24.9131 24.4356 25.0474C24.3663 25.0827 24.2253 25.1355 23.8451 25.1665C23.4483 25.1989 22.9272 25.2 22.12 25.2H21.28C20.4728 25.2 19.9517 25.1989 19.5549 25.1665C19.1747 25.1355 19.0337 25.0827 18.9644 25.0474C18.7009 24.9131 18.4869 24.6991 18.3526 24.4356C18.3173 24.3663 18.2645 24.2253 18.2335 23.8451C18.2011 23.4483 18.2 22.9272 18.2 22.12V21.28C18.2 20.4728 18.2011 19.9517 18.2335 19.5549C18.2645 19.1747 18.3173 19.0337 18.3526 18.9644C18.4869 18.7009 18.7009 18.4869 18.9644 18.3526Z" fill="#7C7C7C" stroke="#7C7C7C" stroke-width="2.394" mask="url(#path-1-inside-1_4_93)"/>
</svg>
