<svg width="32" height="32" viewBox="0 0 32 32" fill="none" xmlns="http://www.w3.org/2000/svg">
<path d="M16 19.8182C11.7822 19.8182 8.36364 16.3996 8.36364 12.1818V2H23.6364V12.1818C23.6364 16.3996 20.2178 19.8182 16 19.8182ZM16 19.8182C18.8116 19.8182 21.0909 22.0975 21.0909 24.9091M16 19.8182C13.1884 19.8182 10.9091 22.0975 10.9091 24.9091M8.36364 4.54545H2V9.63636C2 12.8296 4.27945 14.7273 7.09091 14.7273H8.36364V4.54545ZM23.6364 14.7273H24.9091C27.7205 14.7273 30 12.8296 30 9.63636V4.54545H23.6364V14.7273ZM7.09091 30H24.9091V24.9091H7.09091V30Z" stroke="#7C7C7C" stroke-width="2.5"/>
</svg>
