<svg width="46" height="46" viewBox="0 0 46 46" fill="none" xmlns="http://www.w3.org/2000/svg">
<path d="M36.4167 15.3334H28.221L34.247 4.79169C34.4154 4.50004 34.504 4.16918 34.5038 3.83241C34.5036 3.49564 34.4147 3.16487 34.2461 2.87338C34.0774 2.5819 33.8349 2.34001 33.543 2.17205C33.2511 2.0041 32.9201 1.91603 32.5833 1.91669H19.1667C18.8105 1.91652 18.4613 2.01561 18.1583 2.20283C17.8553 2.39005 17.6105 2.65799 17.4512 2.97661L7.86792 22.1433C7.72186 22.4356 7.65295 22.7603 7.66773 23.0867C7.68252 23.4132 7.7805 23.7304 7.95238 24.0082C8.12426 24.2861 8.36432 24.5155 8.64978 24.6745C8.93523 24.8335 9.25659 24.9168 9.58333 24.9167H18.5073L13.4972 41.6166C13.37 42.0388 13.3923 42.4919 13.5603 42.8995C13.7283 43.3072 14.0317 43.6444 14.4194 43.8545C14.807 44.0645 15.2552 44.1345 15.6885 44.0526C16.1217 43.9707 16.5134 43.7419 16.7977 43.4049L37.881 18.4882C38.1172 18.2091 38.2686 17.8682 38.3174 17.5059C38.3663 17.1435 38.3104 16.7747 38.1565 16.4431C38.0025 16.1114 37.7569 15.8307 37.4487 15.6341C37.1404 15.4375 36.7823 15.3331 36.4167 15.3334ZM19.8126 33.9039L22.9195 23.5539C23.006 23.2675 23.0242 22.9648 22.9727 22.6701C22.9212 22.3754 22.8014 22.0968 22.6229 21.8567C22.4445 21.6166 22.2123 21.4216 21.9449 21.2873C21.6776 21.153 21.3825 21.0832 21.0833 21.0834H12.6845L20.3512 5.75002H29.279L23.253 16.2917C23.0846 16.5833 22.996 16.9142 22.9962 17.251C22.9964 17.5877 23.0853 17.9185 23.2539 18.21C23.4226 18.5015 23.6651 18.7434 23.957 18.9113C24.2489 19.0793 24.5799 19.1674 24.9167 19.1667H32.2843L19.8126 33.9039Z" fill="white"/>
</svg>
