<svg width="57" height="57" viewBox="0 0 57 57" fill="none" xmlns="http://www.w3.org/2000/svg">
<path d="M9.50001 28.4996H19L22.5625 21.3745L27.3125 33.2496L30.875 28.4996H35.625M28.5 15.2703C29.6505 12.9779 31.9872 11.2229 33.7694 10.3533C38.2598 8.16221 42.7101 9.29108 46.3968 12.9779C51.0342 17.6154 51.0342 25.1342 46.3968 29.7716L30.1794 45.9893C29.2519 46.9167 27.7481 46.9167 26.8206 45.9893L10.6031 29.7716C5.96563 25.1342 5.96563 17.6154 10.6031 12.9779C14.2899 9.29108 18.7401 8.16221 23.2305 10.3533C25.0128 11.2229 27.3496 12.9779 28.5 15.2703Z" stroke="white" stroke-width="3.5" stroke-linecap="round" stroke-linejoin="round"/>
</svg>
