<svg width="50" height="50" viewBox="0 0 50 50" fill="none" xmlns="http://www.w3.org/2000/svg">
<path d="M45.2291 39.5833C44.8472 40.2198 44.3066 40.7464 43.6603 41.1115C43.014 41.4767 42.284 41.668 41.5416 41.6667H33.3333C32.7808 41.6667 32.2509 41.4472 31.8602 41.0565C31.4695 40.6658 31.25 40.1359 31.25 39.5833C31.25 39.0308 31.4695 38.5009 31.8602 38.1102C32.2509 37.7195 32.7808 37.5 33.3333 37.5L41.5208 37.6042C41.6666 37.4583 41.5208 37.3542 41.5208 37.3333L36.5833 28.7917L36.2708 29.6875C36.1927 29.9615 36.0592 30.2166 35.8786 30.4369C35.698 30.6573 35.4741 30.8383 35.2208 30.9687C34.9674 31.0991 34.6901 31.1762 34.4058 31.1951C34.1215 31.214 33.8363 31.1745 33.5679 31.0788C33.2995 30.9832 33.0536 30.8335 32.8454 30.639C32.6371 30.4445 32.471 30.2094 32.3572 29.9482C32.2435 29.687 32.1845 29.4052 32.184 29.1202C32.1834 28.8353 32.2413 28.5533 32.3541 28.2917L34.1875 23.1458C34.3633 22.6531 34.718 22.2446 35.1812 22.0014C35.6444 21.7583 36.1821 21.6983 36.6875 21.8333L42.375 23.3542C42.6473 23.4176 42.904 23.5352 43.1299 23.7C43.3558 23.8647 43.5462 24.0733 43.6898 24.3132C43.8334 24.5531 43.9273 24.8194 43.9658 25.0964C44.0043 25.3733 43.9866 25.6552 43.9139 25.9251C43.8411 26.1951 43.7148 26.4477 43.5424 26.6678C43.37 26.8879 43.155 27.0711 42.9103 27.2064C42.6656 27.3416 42.3962 27.4263 42.1181 27.4553C41.84 27.4842 41.559 27.4569 41.2916 27.375L40.4583 27.1667L45.1458 35.2708C45.5331 35.9205 45.7444 36.6598 45.759 37.416C45.7736 38.1722 45.591 38.9192 45.2291 39.5833ZM32.4583 17.0833C32.7058 16.9562 32.9253 16.7807 33.1039 16.5673C33.2825 16.3539 33.4165 16.1069 33.4981 15.8409C33.5797 15.5748 33.6071 15.2952 33.5788 15.0183C33.5505 14.7415 33.467 14.4732 33.3333 14.2292L28.8125 6.35416C28.4402 5.70899 27.9017 5.17543 27.2532 4.80902C26.6046 4.44262 25.8697 4.25677 25.125 4.27082C24.3697 4.2612 23.625 4.4482 22.9638 4.81345C22.3027 5.17871 21.748 5.70967 21.3541 6.35416L16.6666 14.4583L16.4375 13.625C16.2957 13.0924 15.9486 12.6376 15.4722 12.3604C14.9958 12.0832 14.429 12.006 13.8958 12.1458C13.6298 12.2159 13.3803 12.338 13.1618 12.505C12.9432 12.672 12.7598 12.8806 12.6223 13.1189C12.4848 13.3571 12.3958 13.6202 12.3605 13.893C12.3252 14.1658 12.3443 14.4429 12.4166 14.7083L13.9375 20.3958C14.0596 20.8503 14.3319 21.2501 14.7102 21.53C15.0885 21.81 15.5505 21.9536 16.0208 21.9375C16.145 21.9581 16.2717 21.9581 16.3958 21.9375L21.6666 20.8333C21.9402 20.7841 22.2014 20.6814 22.4354 20.5312C22.6693 20.381 22.8713 20.1862 23.0299 19.958C23.1886 19.7297 23.3007 19.4724 23.3599 19.2008C23.4191 18.9292 23.4242 18.6486 23.375 18.375C23.3257 18.1014 23.2231 17.8402 23.0729 17.6063C22.9227 17.3724 22.7279 17.1703 22.4996 17.0117C22.2713 16.8531 22.0141 16.7409 21.7424 16.6817C21.4708 16.6225 21.1902 16.6174 20.9166 16.6667L19.9791 16.8333L25 8.45832C25 8.45832 25 8.33332 25.2708 8.45832L29.7083 16.3542C29.9889 16.8017 30.4289 17.1259 30.9395 17.2612C31.45 17.3966 31.9929 17.333 32.4583 17.0833ZM20.9583 34.0625C20.5992 33.6426 20.0879 33.3825 19.537 33.3395C18.9861 33.2966 18.4407 33.4742 18.0208 33.8333C17.6009 34.1925 17.3408 34.7037 17.2978 35.2546C17.2549 35.8055 17.4325 36.3509 17.7916 36.7708L18.4166 37.5H8.54164C8.54164 37.5 8.33331 37.5 8.33331 37.2708L12.9375 29.5C13.2192 29.0248 13.3006 28.4572 13.1639 27.9219C13.0271 27.3867 12.6834 26.9277 12.2083 26.6458C11.7331 26.3641 11.1655 26.2827 10.6302 26.4194C10.095 26.5562 9.63599 26.8999 9.35414 27.375L4.77081 35.1667C4.38546 35.8123 4.18201 36.5502 4.18201 37.3021C4.18201 38.054 4.38546 38.7918 4.77081 39.4375C5.14292 40.1075 5.68605 40.6668 6.34483 41.0584C7.00361 41.45 7.75446 41.6599 8.52081 41.6667H17.8958L17.2708 42.2708C17.0755 42.4645 16.9206 42.6949 16.8148 42.9488C16.709 43.2027 16.6546 43.475 16.6546 43.75C16.6546 44.025 16.709 44.2973 16.8148 44.5512C16.9206 44.8051 17.0755 45.0355 17.2708 45.2292C17.4645 45.4244 17.6949 45.5794 17.9488 45.6852C18.2026 45.7909 18.475 45.8454 18.75 45.8454C19.025 45.8454 19.2973 45.7909 19.5512 45.6852C19.8051 45.5794 20.0355 45.4244 20.2291 45.2292L24.3958 41.0625C24.7531 40.6772 24.9516 40.1712 24.9516 39.6458C24.9516 39.1204 24.7531 38.6144 24.3958 38.2292L20.9583 34.0625Z" fill="white"/>
</svg>
