<svg width="24" height="24" viewBox="0 0 24 24" fill="none" xmlns="http://www.w3.org/2000/svg">
<path fill-rule="evenodd" clip-rule="evenodd" d="M23.8391 0.820903C23.7747 0.665186 23.6793 0.519232 23.5532 0.392377C23.5514 0.390488 23.5495 0.388613 23.5477 0.386737C23.3072 0.14771 22.9759 0 22.61 0H14.63C13.8954 0 13.3 0.595468 13.3 1.33C13.3 2.06453 13.8954 2.66 14.63 2.66H19.3991L9.69956 12.3596C9.18015 12.8789 9.18015 13.7211 9.69956 14.2404C10.2189 14.7598 11.0611 14.7598 11.5804 14.2404L21.28 4.5409V9.31C21.28 10.0446 21.8754 10.64 22.61 10.64C23.3446 10.64 23.94 10.0446 23.94 9.31V1.33092C23.94 1.32928 23.94 1.32765 23.94 1.32601C23.9395 1.15409 23.9058 0.982258 23.8391 0.820903ZM0 6.65C0 2.97731 2.97731 0 6.65 0H7.98C8.71453 0 9.31 0.595468 9.31 1.33C9.31 2.06453 8.71453 2.66 7.98 2.66H6.65C4.44639 2.66 2.66 4.44639 2.66 6.65V17.29C2.66 19.4937 4.44639 21.28 6.65 21.28H17.29C19.4937 21.28 21.28 19.4937 21.28 17.29V15.96C21.28 15.2254 21.8754 14.63 22.61 14.63C23.3446 14.63 23.94 15.2254 23.94 15.96V17.29C23.94 20.9627 20.9627 23.94 17.29 23.94H6.65C2.97731 23.94 0 20.9627 0 17.29V6.65Z" fill="#D83434"/>
</svg>
