<svg width="54" height="54" viewBox="0 0 54 54" fill="none" xmlns="http://www.w3.org/2000/svg">
<path d="M39.1389 33.6946C40.776 34.4788 42.2684 35.5357 43.5521 36.8205C46.4646 39.7276 48.1124 43.5655 48.2187 47.6581L48.2187 47.6582C48.2205 47.7312 48.2077 47.8038 48.1811 47.8717C48.1544 47.9396 48.1144 48.0015 48.0635 48.0538C48.0125 48.106 47.9516 48.1475 47.8843 48.1759C47.8171 48.2042 47.7448 48.2188 47.6719 48.2188H44.7188C44.4269 48.2188 44.1794 47.9882 44.1719 47.6916M39.1389 33.6946L16.4531 47.6613C16.5586 43.6008 18.1934 39.7934 21.0727 36.9088C22.3595 35.62 23.8584 34.5626 25.5034 33.7825C25.4679 33.7534 25.4326 33.724 25.3976 33.6945M39.1389 33.6946C41.4679 31.7356 42.9453 28.8033 42.9453 25.5235C42.9453 19.6106 38.0154 14.7609 32.1028 14.8516L32.1027 14.8516C26.2814 14.9423 21.591 19.6858 21.591 25.5235C21.591 28.8034 23.0736 31.7355 25.3976 33.6945M39.1389 33.6946L25.5219 33.6356C25.4804 33.655 25.4389 33.6747 25.3976 33.6945M44.1719 47.6916C44.1719 47.6913 44.1719 47.6909 44.1719 47.6906L44.2969 47.6877L44.172 47.692C44.172 47.6919 44.1719 47.6917 44.1719 47.6916ZM44.1719 47.6916C44.0675 44.6647 42.8412 41.8315 40.6911 39.6814C38.4417 37.432 35.4519 36.1953 32.2734 36.1953H32.2731C30.7093 36.191 29.1602 36.4968 27.7154 37.0952C26.2706 37.6935 24.9588 38.5724 23.856 39.6811L23.8557 39.6815C21.7003 41.8317 20.4741 44.665 20.3749 47.6918L20.25 47.6877L20.375 47.6906C20.3681 47.9877 20.1204 48.2188 19.8281 48.2188H16.8751C16.8021 48.2188 16.7298 48.2042 16.6626 48.1759C16.5953 48.1475 16.5344 48.106 16.4834 48.0538C16.4325 48.0015 16.3925 47.9396 16.3658 47.8717C16.3391 47.8038 16.3263 47.7312 16.3282 47.6582L16.3282 47.6581C16.4345 43.5655 18.0824 39.7276 20.9842 36.8205L20.9842 36.8205C22.2676 35.5352 23.7601 34.4782 25.3976 33.6945M18.9791 22.6072C19.1531 22.6863 19.2533 22.8815 19.2164 23.0713C19.0688 23.8676 18.9897 24.685 18.9897 25.5235C18.9897 25.9928 19.016 26.4569 19.0635 26.9156C19.0899 27.1266 18.9527 27.3217 18.7471 27.3744C16.6746 27.8965 14.7762 28.9723 13.2258 30.5227C11.0479 32.6953 9.8086 35.5588 9.70841 38.6174M18.9791 22.6072L14.9721 24.7069C13.3437 25.477 11.8422 26.5273 10.5363 27.8332C7.64649 30.7178 6.01173 34.5252 5.90626 38.591C5.90485 38.6473 5.91472 38.7033 5.93529 38.7557C5.95586 38.8081 5.98672 38.8559 6.02603 38.8962C6.06535 38.9365 6.11233 38.9685 6.16422 38.9904C6.2161 39.0122 6.27183 39.0235 6.32813 39.0235H9.28653C9.51329 39.0235 9.70314 38.8442 9.70841 38.6174M18.9791 22.6072C18.2619 22.2856 17.6027 21.8426 17.0332 21.2836C16.3621 20.6329 15.834 19.8495 15.4826 18.9832C15.1313 18.117 14.9643 17.1871 14.9924 16.2528C15.0399 14.56 15.7201 12.9516 16.9067 11.7387C18.2092 10.4045 19.96 9.67677 21.8215 9.69787C23.5037 9.71369 25.1279 10.3623 26.3566 11.5119C26.7733 11.9022 27.1318 12.3346 27.4324 12.7986C27.5379 12.9621 27.7436 13.0307 27.9229 12.9674M18.9791 22.6072L14.8661 24.6188M9.70841 38.6174L9.83337 38.6203C9.82647 38.9174 9.57876 39.1485 9.28653 39.1485H6.32818C6.25519 39.1485 6.18294 39.1339 6.11569 39.1056C6.04843 39.0772 5.98752 39.0357 5.93656 38.9835C5.88559 38.9312 5.8456 38.8693 5.81894 38.8014C5.79227 38.7335 5.77947 38.6609 5.7813 38.5879L5.7813 38.5878C5.8876 34.4899 7.53547 30.652 10.4479 27.7448C11.75 26.4428 13.245 25.3928 14.8661 24.6188M9.70841 38.6174L9.83334 38.6215C9.9325 35.5946 11.1587 32.7614 13.3141 30.6112L13.3142 30.6111C14.8488 29.0765 16.7273 28.0121 18.7776 27.4956L18.7781 27.4955C19.0424 27.4277 19.2213 27.1763 19.1877 26.9015C19.1407 26.447 19.1147 25.9877 19.1147 25.5235C19.1147 24.6931 19.193 23.8835 19.3392 23.0946C19.3867 22.8487 19.2579 22.5967 19.0308 22.4934L19.0303 22.4932C18.3261 22.1774 17.6794 21.7427 17.1208 21.1944L17.1202 21.1939C16.4616 20.5553 15.9433 19.7864 15.5985 18.9363C15.2536 18.0862 15.0898 17.1735 15.1173 16.2565L15.1173 16.2563C15.1639 14.5949 15.8315 13.0164 16.996 11.8261L16.9961 11.826C18.2748 10.5162 19.9928 9.80215 21.8201 9.82286L21.8203 9.82286C23.4713 9.83839 25.0654 10.475 26.2712 11.6032C26.6802 11.9863 27.0323 12.4108 27.3274 12.8664C27.4643 13.0787 27.7307 13.1678 27.9645 13.0853L27.9229 12.9674M14.8661 24.6188C14.9075 24.5991 14.9491 24.5795 14.9907 24.56C12.6635 22.6238 11.185 19.7098 11.185 16.4479C11.185 10.6102 16.0576 5.81662 21.9059 5.90627C25.9559 5.96955 29.4574 8.31095 31.1713 11.7018C31.3031 11.9654 31.1344 12.2819 30.8391 12.3135C29.8318 12.419 28.851 12.6457 27.9229 12.9674M14.8661 24.6188C12.5373 22.6598 11.06 19.7276 11.06 16.4479C11.06 10.5402 15.9899 5.69057 21.9078 5.78128L21.9078 5.78128C26.0059 5.84531 29.5488 8.21455 31.2829 11.6454L31.2831 11.6459C31.4532 11.9861 31.2359 12.3967 30.8524 12.4378L30.8521 12.4378C29.8549 12.5422 28.8834 12.7668 27.9638 13.0855L27.9229 12.9674M32.2738 32.1485H32.2734C30.503 32.1485 28.8368 31.4602 27.5896 30.2077L27.589 30.2072C26.9631 29.5862 26.4687 28.8456 26.1353 28.0294C25.8019 27.2132 25.6363 26.3382 25.6484 25.4566L25.6484 25.456C25.664 23.7587 26.342 22.1178 27.5272 20.9015C28.7696 19.6282 30.4305 18.9192 32.2061 18.8984C33.9608 18.8829 35.6638 19.5663 36.9162 20.7928C38.2 22.0507 38.9037 23.7324 38.9037 25.5235C38.9037 27.2938 38.2155 28.9548 36.9628 30.2075L36.9626 30.2077C36.3481 30.8251 35.6174 31.3145 34.8125 31.6477C34.0077 31.9808 33.1448 32.151 32.2738 32.1485ZM32.2734 32.2735C30.4699 32.2735 28.7719 31.5721 27.501 30.2959L32.2734 32.2735Z" fill="white" stroke="white" stroke-width="0.25" stroke-linejoin="round"/>
</svg>
